<svg xmlns="http://www.w3.org/2000/svg" xmlns:xlink="http://www.w3.org/1999/xlink" viewBox="0 0 500 500"><defs><style>.cls-1,.cls-7{fill:none;}.cls-2{fill:#fdad00;}.cls-3{fill:#fff;}.cls-4{clip-path:url(#clip-path);}.cls-5{fill:#f70000;}.cls-6{fill:#13202d;}.cls-7{stroke:#fdad00;stroke-miterlimit:10;stroke-width:15px;}</style><clipPath id="clip-path"><path class="cls-1" d="M319.13,192.94a9.15,9.15,0,0,0-12.27-12.27L197.2,235.09a16.22,16.22,0,0,0-7.3,7.3L135.48,352.05a9.15,9.15,0,0,0,12.27,12.27L257.41,309.9a16.22,16.22,0,0,0,7.3-7.3Z"/></clipPath></defs><g id="Adventure"><circle class="cls-2" cx="227" cy="273" r="227"/><path class="cls-3" d="M367.58,273a25.71,25.71,0,0,1,24.29-25.67A167,167,0,0,0,252.59,108.12a25.71,25.71,0,0,1-51.18,0A167,167,0,0,0,62.12,247.41a25.71,25.71,0,0,1,0,51.18A167,167,0,0,0,201.41,437.88a25.71,25.71,0,0,1,51.18,0A167,167,0,0,0,391.87,298.67,25.71,25.71,0,0,1,367.58,273Z"/><g class="cls-4"><path class="cls-5" d="M307.13,180.53l-114.81,57,70,70,57-114.81A9.06,9.06,0,0,0,307.13,180.53Z"/><path class="cls-6" d="M135.34,352.32l57-114.81,70,70-114.81,57A9.06,9.06,0,0,1,135.34,352.32Z"/></g><path class="cls-2" d="M397.83,63.52h.74A27.5,27.5,0,0,1,426.07,91v29.36a28.24,28.24,0,0,1-28.24,28.24h0a27.5,27.5,0,0,1-27.5-27.5V91a27.5,27.5,0,0,1,27.5-27.5Z" transform="translate(604.77 462.65) rotate(-135)"/><circle class="cls-7" cx="437" cy="63" r="55.5"/></g></svg>