<?xml version="1.0" encoding="utf-8"?>
<!-- Generator: Adobe Illustrator 26.0.1, SVG Export Plug-In . SVG Version: 6.00 Build 0)  -->
<svg version="1.1" id="Layer_1" xmlns="http://www.w3.org/2000/svg" xmlns:xlink="http://www.w3.org/1999/xlink" x="0px" y="0px"
	 viewBox="0 0 500 500" style="enable-background:new 0 0 500 500;" xml:space="preserve">
<style type="text/css">
	.st0{fill:#006AAC;}
	.st1{fill:#00ABFB;}
	.st2{fill:#F70000;}
	.st3{fill:#FDEC00;}
	.st4{fill:#008D5A;}
</style>
<g id="Aiming">
	<circle class="st0" cx="233.9" cy="266.2" r="233.8"/>
	<circle class="st1" cx="233.9" cy="266.2" r="178.6"/>
	<circle class="st2" cx="233.9" cy="266.2" r="122.7"/>
	<circle class="st3" cx="233.9" cy="266.2" r="68.1"/>
	<g>
		<path class="st4" d="M233.9,281.2c-4,0-7.9-1.6-10.9-4.6c-5.7-6-5.5-15.5,0.5-21.2L392.7,94c6-5.7,15.5-5.5,21.2,0.5
			s5.5,15.5-0.5,21.2L244.2,277.1C241.3,279.8,237.6,281.2,233.9,281.2z"/>
	</g>
	<path class="st4" d="M491.6,58.2l-54.9,3.4l-6-54.7c-0.5-4.3-4.3-7.3-8.6-6.9c-2,0.2-3.8,1.2-5.1,2.7l-37.5,44.5
		c-6.4,7.6-9.2,17.6-7.6,27.5l8.6,53.5l54.2-0.7c10-0.1,19.4-4.6,25.8-12.2L498,70.9c2.8-3.3,2.3-8.2-0.9-10.9
		C495.6,58.7,493.6,58.1,491.6,58.2z"/>
</g>
</svg>
