<svg xmlns="http://www.w3.org/2000/svg" viewBox="0 0 500 500"><defs><style>.cls-1{fill:#008d5a;}.cls-2{fill:#fdec00;}.cls-3{fill:none;stroke:#41bf2e;stroke-linecap:round;stroke-linejoin:round;stroke-width:30px;}.cls-4{fill:#fff;}</style></defs><g id="Business"><path class="cls-1" d="M226.91,201.72,329.52,24A16,16,0,0,0,315.66,0H138.15A16,16,0,0,0,124.3,24Z"/><ellipse class="cls-1" cx="226.91" cy="294.18" rx="226.91" ry="205.82"/><circle class="cls-2" cx="422.19" cy="422.19" r="77.81"/><line class="cls-3" x1="155.62" y1="87.35" x2="298.19" y2="87.35"/><path class="cls-4" d="M286.37,295.1a41.41,41.41,0,0,0-10.51-13.24A58.34,58.34,0,0,0,261,273a146.54,146.54,0,0,0-16.9-5.89q-8.56-2.4-16.9-4.21a142.78,142.78,0,0,1-14.85-3.95,36.69,36.69,0,0,1-10.5-5.15,9.32,9.32,0,0,1-4-7.79,13.87,13.87,0,0,1,5.91-11.63q5.92-4.44,17-4.43a77.38,77.38,0,0,1,18,2.16,66.92,66.92,0,0,1,17.51,7,16.92,16.92,0,0,0,8.69,2.4,18.73,18.73,0,0,0,11.71-4.21A13.51,13.51,0,0,0,282.17,226a13,13,0,0,0-2.89-8.25A29.52,29.52,0,0,0,269.4,210a80.15,80.15,0,0,0-14.2-5.7,102.24,102.24,0,0,0-13.29-3V186.75a15,15,0,0,0-30,0v13.86a69.88,69.88,0,0,0-13.3,3,57.18,57.18,0,0,0-19.14,10.61,47.55,47.55,0,0,0-12,15.54,43.23,43.23,0,0,0-4.21,18.92q0,11.32,4,19.16A40.15,40.15,0,0,0,177.66,281a57.42,57.42,0,0,0,14.81,8.68,155,155,0,0,0,17,5.78q8.67,2.41,17,4.2a126.78,126.78,0,0,1,14.81,4.06,33,33,0,0,1,10.48,5.61,10.74,10.74,0,0,1,4,8.59,14.09,14.09,0,0,1-1.69,6.57,16.57,16.57,0,0,1-5.17,5.73,27.06,27.06,0,0,1-8.79,3.94,47.12,47.12,0,0,1-12.28,1.43,66.72,66.72,0,0,1-21.92-3.49,77.38,77.38,0,0,1-18.29-9,12.31,12.31,0,0,0-4.34-2,19.87,19.87,0,0,0-4.81-.6,16.26,16.26,0,0,0-11.2,4.46,14.71,14.71,0,0,0-4.94,11.44,14.37,14.37,0,0,0,2.65,8.25,29.67,29.67,0,0,0,10,9,72.88,72.88,0,0,0,15.17,6.56A123.6,123.6,0,0,0,208,364.25c1.32.21,2.61.38,3.91.54v15.73a15,15,0,0,0,30,0V364.6a75.6,75.6,0,0,0,12.44-2.86,57.77,57.77,0,0,0,20.11-10.82,43.83,43.83,0,0,0,11.92-16.25,51.86,51.86,0,0,0,4-20.45Q290.35,302.92,286.37,295.1Z"/></g></svg>