<svg xmlns="http://www.w3.org/2000/svg" viewBox="0 0 500 500"><defs><style>.cls-1{fill:#f70000;}.cls-2{fill:#fdad00;}.cls-3{fill:#fdec00;}.cls-4{fill:#006aac;}.cls-5{fill:none;stroke:#006aac;stroke-linecap:round;stroke-linejoin:round;stroke-width:30px;}</style></defs><g id="Drawing"><path class="cls-1" d="M318.86,23.3H430.24a73,73,0,0,1,73,73v81.42a0,0,0,0,1,0,0H245.88a0,0,0,0,1,0,0V96.29a73,73,0,0,1,73-73Z" transform="translate(77.57 -148.88) rotate(25)"/><path class="cls-2" d="M236.14,92.86l-96.81,207.6a33.69,33.69,0,0,0-2.23,22L174,477.15c4.48,18.82,23.67,27.76,41,19.1l142.19-71.16a33.69,33.69,0,0,0,15.43-15.87l96.81-207.6Z"/><path class="cls-3" d="M215,496.25l142.19-71.16c.84-.43,1.67-.89,2.48-1.38l-223.06-104c.14.93.32,1.86.54,2.78L174,477.15C178.46,496,197.65,504.91,215,496.25Z"/><path class="cls-4" d="M253.66,476.87,215,496.25c-17.3,8.66-36.49-.29-41-19.1l-10-42.11Z"/><path class="cls-5" d="M122.17,473.57a201.78,201.78,0,0,1-39-29c-5.42-5.17-74.46-72.76-64-141,12.43-81.1,127.62-100.94,125-177-.56-16.26-6.22-26.87-8-30C109,48.9,23.76,56.68,15.17,57.57"/></g></svg>