<?xml version="1.0" encoding="utf-8"?>
<!-- Generator: Adobe Illustrator 26.0.1, SVG Export Plug-In . SVG Version: 6.00 Build 0)  -->
<svg version="1.1" id="Idle" xmlns="http://www.w3.org/2000/svg" xmlns:xlink="http://www.w3.org/1999/xlink" x="0px" y="0px"
	 viewBox="0 0 500 500" style="enable-background:new 0 0 500 500;" xml:space="preserve">
<style type="text/css">
	.st0{fill:#FDEC00;}
	.st1{fill:#00C2FF;}
	.st2{fill:#006AAC;}
</style>
<g>
	<path class="st0" d="M53.2,15L63,34.8c0.9,1.9,2.7,3.2,4.8,3.5l21.9,3.2c3.5,0.5,5.8,3.7,5.3,7.2c-0.2,1.4-0.8,2.6-1.8,3.6
		L77.3,67.7c-1.5,1.5-2.2,3.5-1.8,5.6L79.2,95c0.6,3.4-1.7,6.7-5.1,7.3c-1.4,0.2-2.8,0-4-0.6L50.5,91.4c-1.8-1-4-1-5.9,0L25,101.7
		c-3.1,1.6-6.9,0.4-8.5-2.7c-0.6-1.2-0.9-2.6-0.6-4l3.7-21.8c0.3-2-0.3-4.1-1.8-5.6L2,52.2c-2.5-2.4-2.6-6.4-0.1-8.9
		c1-1,2.2-1.6,3.6-1.8l21.9-3.2c2.1-0.3,3.8-1.6,4.8-3.5L41.8,15c1.5-3.1,5.3-4.4,8.5-2.9C51.6,12.7,52.6,13.7,53.2,15z"/>
	<path class="st0" d="M95.2,255.6V247c0-2-1.6-3.6-3.6-3.6H86c-2.4,0-4.5-1.5-5.3-3.8c-0.4-1.2-0.9-2.3-1.4-3.4
		c-1-2.2-0.6-4.7,1.1-6.4l3.9-3.9c1.4-1.4,1.4-3.7,0-5.1l-6.1-6.1c-1.4-1.4-3.7-1.4-5.1,0l-3.9,3.9c-1.7,1.7-4.3,2.1-6.4,1.1
		c-1.1-0.5-2.3-1-3.4-1.4c-2.2-0.8-3.7-3-3.7-5.4v-5.5c0-2-1.6-3.6-3.6-3.6h-8.6c-2,0-3.6,1.6-3.6,3.6v5.5c0,2.4-1.5,4.5-3.8,5.3
		c-1.2,0.4-2.3,0.9-3.4,1.4c-2.2,1-4.7,0.6-6.4-1.1l-3.9-3.9c-1.4-1.4-3.7-1.4-5.1,0l-6.1,6.1c-1.4,1.4-1.4,3.7,0,5.1l3.9,3.9
		c1.7,1.7,2.1,4.3,1.1,6.4c-0.5,1.1-1,2.2-1.4,3.4c-0.8,2.3-2.9,3.8-5.3,3.8H3.9c-2,0-3.6,1.6-3.6,3.6v8.6c0,2,1.6,3.6,3.6,3.6h5.5
		c2.4,0,4.5,1.5,5.3,3.7c0.4,1.2,0.9,2.3,1.4,3.4c1,2.2,0.6,4.7-1.1,6.4l-3.9,3.9c-1.4,1.4-1.4,3.7,0,5.1l6.1,6.1
		c1.4,1.4,3.7,1.4,5.1,0l3.9-3.9c1.7-1.7,4.3-2.1,6.4-1.1c1.1,0.5,2.3,1,3.4,1.4c2.3,0.8,3.8,2.9,3.8,5.3v5.5c0,2,1.6,3.6,3.6,3.6
		H52c2,0,3.6-1.6,3.6-3.6v-5.5c0-2.4,1.5-4.5,3.8-5.3c1.2-0.4,2.3-0.9,3.4-1.4c2.2-1,4.7-0.6,6.4,1.1l3.9,3.9c1.4,1.4,3.7,1.4,5.1,0
		l6.1-6.1c1.4-1.4,1.4-3.7,0-5.1l-3.9-3.9c-1.7-1.7-2.1-4.3-1.1-6.4c0.5-1.1,1-2.3,1.4-3.5c0.8-2.2,2.9-3.7,5.3-3.7h5.5
		C93.5,259.3,95.2,257.7,95.2,255.6C95.2,255.7,95.2,255.7,95.2,255.6z M48.9,268.8c-9.6,0.6-18-6.7-18.6-16.3s6.7-18,16.3-18.6
		c9.6-0.6,18,6.7,18.6,16.3c0,0.8,0,1.5,0,2.3C64.6,261.3,57.6,268.3,48.9,268.8z"/>
	<circle class="st0" cx="47.2" cy="434.8" r="45.8"/>
	<path class="st1" d="M309.4,182.7v135H192.1c-23.2,0-42-18.8-42-42v-51c0-23.2,18.8-42,42-42H309.4z"/>
	<path class="st2" d="M500,224.7v51c0,23.2-18.8,42-42,42H309.4v-135H458C481.2,182.7,500,201.5,500,224.7z"/>
	<path class="st1" d="M192.1,365.2h266c23.2,0,42,18.8,42,42v51c0,23.2-18.8,42-42,42h-266c-23.2,0-42-18.8-42-42v-51
		C150.1,384,168.9,365.2,192.1,365.2z"/>
	<path class="st2" d="M500,42.2v51c0,23.2-18.8,42-42,42h-47.7V0.2H458C481.2,0.2,500,19,500,42.2z"/>
	<path class="st1" d="M410.4,0.2v135H192.1c-23.2,0-42-18.8-42-42v-51c0-23.2,18.8-42,42-42H410.4z"/>
</g>
</svg>
