<?xml version="1.0" encoding="utf-8"?>
<!-- Generator: Adobe Illustrator 26.0.1, SVG Export Plug-In . SVG Version: 6.00 Build 0)  -->
<svg version="1.1" id="Layer_1" xmlns="http://www.w3.org/2000/svg" xmlns:xlink="http://www.w3.org/1999/xlink" x="0px" y="0px"
	 viewBox="0 0 500 500" style="enable-background:new 0 0 500 500;" xml:space="preserve">
<style type="text/css">
	.st0{fill:#006AAC;}
	.st1{fill:#FDEC00;}
	.st2{fill:#FDAD00;}
</style>
<g id="Memory">
	<path class="st0" d="M319,0h139c23.2,0,42,18.8,42,42v139c0,23.2-18.8,42-42,42H319c-23.2,0-42-18.8-42-42V42
		C277,18.8,295.8,0,319,0z"/>
	<path class="st0" d="M42.1,277h139c23.2,0,42,18.8,42,42v139c0,23.2-18.8,42-42,42h-139c-23.2,0-42-18.8-42-42V319
		C0.1,295.8,18.9,277,42.1,277z"/>
	<path class="st1" d="M42.1,0h139c23.2,0,42,18.8,42,42v139c0,23.2-18.8,42-42,42h-139c-23.2,0-42-18.8-42-42V42
		C0.1,18.8,18.9,0,42.1,0z"/>
	<path class="st2" d="M104.2,64.4l-49.4,85.5c-2.5,4.3-1,9.9,3.3,12.4c1.4,0.8,2.9,1.2,4.5,1.2h98.7c5,0,9.1-4.1,9.1-9.1
		c0-1.6-0.4-3.1-1.2-4.5l-49.4-85.5c-2.5-4.3-8-5.8-12.4-3.3C106.2,61.9,105,63,104.2,64.4z"/>
	<path class="st2" d="M319,277h139c23.2,0,42,18.8,42,42v139c0,23.2-18.8,42-42,42H319c-23.2,0-42-18.8-42-42V319
		C277,295.8,295.8,277,319,277z"/>
	<path class="st1" d="M381.1,341.1l-49.4,85.5c-2.5,4.3-1,9.9,3.3,12.4c1.4,0.8,2.9,1.2,4.5,1.2h98.7c5,0,9.1-4.1,9.1-9.1
		c0-1.6-0.4-3.1-1.2-4.5l-49.4-85.5c-2.5-4.3-8-5.8-12.4-3.3C383,338.6,381.9,339.7,381.1,341.1z"/>
</g>
</svg>
