<svg xmlns="http://www.w3.org/2000/svg" viewBox="0 0 500 500"><defs><style>.cls-1,.cls-4,.cls-6,.cls-7,.cls-9{fill:none;stroke-linecap:round;stroke-linejoin:round;}.cls-1,.cls-4,.cls-6{stroke:#006aac;}.cls-1{stroke-width:30px;}.cls-2{fill:#41bf2e;}.cls-3{fill:#fdec00;}.cls-4,.cls-9{stroke-width:23px;}.cls-5{fill:#00c2ff;}.cls-6{stroke-width:15px;}.cls-7,.cls-9{stroke:#008d5a;}.cls-7{stroke-width:16px;}.cls-8{fill:#fdad00;}</style></defs><g id="Multiplayer"><line class="cls-1" x1="112.93" y1="135.66" x2="387.07" y2="135.66"/><line class="cls-1" x1="387.07" y1="381.52" x2="387.07" y2="107.37"/><line class="cls-1" x1="120.86" y1="381.52" x2="120.86" y2="107.37"/><line class="cls-1" x1="112.93" y1="392.63" x2="387.07" y2="392.63"/><rect class="cls-2" x="266.21" y="266.21" width="233.79" height="233.79" rx="116.89"/><path class="cls-3" d="M321.53,396.5a6.42,6.42,0,0,0-6.39,7.07,68.33,68.33,0,0,0,135.93,0,6.42,6.42,0,0,0-6.39-7.07Z"/><line class="cls-4" x1="335.51" y1="342.99" x2="335.51" y2="365.01"/><line class="cls-4" x1="430.23" y1="342.99" x2="430.23" y2="365.01"/><rect class="cls-5" y="266.21" width="233.79" height="233.79" rx="116.89"/><polyline class="cls-6" points="52.35 376.02 78.61 365.01 52.35 354"/><polyline class="cls-6" points="176.91 376.02 150.65 365.01 176.91 354"/><path class="cls-7" d="M70,410.56C73.69,420.85,91,437,116.89,437s44.84-13.22,46.89-26.44"/><rect class="cls-8" x="266.21" width="233.79" height="233.79" rx="116.89"/><polyline class="cls-6" points="320.83 96.71 347.08 85.7 320.83 74.69"/><polyline class="cls-6" points="445.39 96.71 419.13 85.7 445.39 74.69"/><path class="cls-3" d="M321.53,123.68a6.42,6.42,0,0,0-6.39,7.07,68.33,68.33,0,0,0,135.93,0,6.42,6.42,0,0,0-6.39-7.07Z"/><rect class="cls-3" width="233.79" height="233.79" rx="116.89"/><path class="cls-8" d="M55.32,131.08a6.42,6.42,0,0,0-6.39,7.07,68.33,68.33,0,0,0,135.93,0,6.42,6.42,0,0,0-6.39-7.07Z"/><line class="cls-9" x1="69.53" y1="80.39" x2="69.53" y2="102.41"/><line class="cls-9" x1="164.26" y1="80.39" x2="164.26" y2="102.41"/></g></svg>