<svg xmlns="http://www.w3.org/2000/svg" viewBox="0 0 500 500"><defs><style>.cls-1{fill:#006aac;}.cls-2{fill:#fdad00;}.cls-3{fill:#fdec00;}.cls-4{fill:#41bf2e;}.cls-5{fill:#13202d;}.cls-6{fill:#008d5a;}</style></defs><g id="Platformer"><rect class="cls-1" width="500" height="500" rx="42"/><path class="cls-2" d="M86.16,217.27h70.16a20.61,20.61,0,0,1,20.61,20.61V273a55.69,55.69,0,0,1-55.69,55.69h0A55.69,55.69,0,0,1,65.55,273V237.88A20.61,20.61,0,0,1,86.16,217.27Z"/><path class="cls-3" d="M325.48,256.13l9.41,19.07a6.1,6.1,0,0,0,4.59,3.34l21,3.06A6.09,6.09,0,0,1,363.91,292l-15.24,14.85a6.1,6.1,0,0,0-1.75,5.39l3.6,21a6.09,6.09,0,0,1-8.84,6.42l-18.83-9.9a6.11,6.11,0,0,0-5.67,0l-18.83,9.9a6.09,6.09,0,0,1-8.84-6.42l3.59-21a6.07,6.07,0,0,0-1.75-5.39L276.12,292a6.09,6.09,0,0,1,3.37-10.39l21.06-3.06a6.08,6.08,0,0,0,4.58-3.34l9.42-19.07A6.09,6.09,0,0,1,325.48,256.13Z"/><rect class="cls-2" x="206.02" y="395.74" width="227.98" height="104.26"/><path class="cls-4" d="M437.75,428.9H202.27a20,20,0,1,1,0-40H437.75a20,20,0,0,1,0,40Z"/><path class="cls-4" d="M176.93,252.7H64.26a20,20,0,0,1,0-40H176.93a20,20,0,0,1,0,40Z"/><path class="cls-2" d="M287.75,67.15H406.92a20.61,20.61,0,0,1,20.61,20.61v35.08a55.69,55.69,0,0,1-55.69,55.69h-49a55.69,55.69,0,0,1-55.69-55.69V87.76A20.61,20.61,0,0,1,287.75,67.15Z"/><path class="cls-4" d="M427.53,102.58H265.29a20,20,0,0,1,0-40H427.53a20,20,0,0,1,0,40Z"/><path class="cls-5" d="M150.25,170.68l-11.63-11.63a6.22,6.22,0,0,0-4.45-1.83,27,27,0,1,0-27.14,0,6.22,6.22,0,0,0-4.45,1.83L91,170.68a6.26,6.26,0,0,0,0,8.86h0a6.28,6.28,0,0,0,8.86,0l3.18-3.19v13.22h0V206a6.27,6.27,0,1,0,12.53,0V195.88h10.18V206a6.26,6.26,0,1,0,12.52,0V176.35l3.19,3.19a6.28,6.28,0,0,0,8.86,0h0A6.28,6.28,0,0,0,150.25,170.68Z"/><path class="cls-6" d="M117.17,143.09a3.41,3.41,0,0,1-3.41-3.41v-4.52a3.41,3.41,0,1,1,6.82,0v4.52A3.41,3.41,0,0,1,117.17,143.09Z"/><path class="cls-6" d="M136.59,143.09a3.41,3.41,0,0,1-3.41-3.41v-4.52a3.41,3.41,0,0,1,6.82,0v4.52A3.41,3.41,0,0,1,136.59,143.09Z"/></g></svg>