<svg xmlns="http://www.w3.org/2000/svg" viewBox="0 0 500 500"><defs><style>.cls-1{fill:#006aac;}.cls-2{fill:#fff;}.cls-3{fill:#f70000;}.cls-4{fill:#13202d;}</style></defs><g id="Tming"><ellipse class="cls-1" cx="265.28" cy="265.23" rx="234.72" ry="234.61"/><ellipse class="cls-2" cx="265.28" cy="265.23" rx="172.5" ry="172.42"/><rect class="cls-1" x="239.59" y="-0.1" width="57.64" height="87.96" rx="23.24" transform="translate(536.81 87.77) rotate(180)"/><rect class="cls-1" x="53.2" y="39.25" width="57.63" height="87.98" transform="translate(-34.84 82.35) rotate(-44.99)"/><path class="cls-1" d="M111.78,40.85,41,111.56a16,16,0,0,1-22.65,0L4.69,97.9a16,16,0,0,1,0-22.65L75.45,4.53a16,16,0,0,1,22.65,0L111.78,18.2A16,16,0,0,1,111.78,40.85Z"/><path class="cls-3" d="M265.28,265.23,164.84,166.45a140.94,140.94,0,0,1,235.21,57.67Z"/><ellipse class="cls-4" cx="269.44" cy="266.38" rx="33.14" ry="33.12"/><path class="cls-4" d="M384.68,223.07l-116.1,10.19L287.46,294l100.63-60.42A5.67,5.67,0,0,0,384.68,223.07Z"/></g></svg>