<svg xmlns="http://www.w3.org/2000/svg" viewBox="0 0 500 500"><defs><style>.cls-1{fill:#41bf2e;}.cls-2{fill:#008d5a;}.cls-3{fill:#fdad00;}</style></defs><g id="Tower_defense" data-name="Tower defense"><path class="cls-1" d="M500,14.39V234.28A38.72,38.72,0,0,1,461.28,273H38.72A38.72,38.72,0,0,1,0,234.28V14.39A14.39,14.39,0,0,1,14.39,0H85.61A14.39,14.39,0,0,1,100,14.39V85.62A14.39,14.39,0,0,0,114.39,100h71.22A14.39,14.39,0,0,0,200,85.62V14.39A14.39,14.39,0,0,1,214.39,0h71.22A14.39,14.39,0,0,1,300,14.39V85.62A14.39,14.39,0,0,0,314.39,100h71.22A14.39,14.39,0,0,0,400,85.62V14.39A14.39,14.39,0,0,1,414.39,0h71.22A14.39,14.39,0,0,1,500,14.39Z"/><path class="cls-2" d="M38.5,273h418a0,0,0,0,1,0,0V464.58A35.42,35.42,0,0,1,421.08,500H73.91A35.42,35.42,0,0,1,38.5,464.58V273A0,0,0,0,1,38.5,273Z"/><path class="cls-3" d="M247.5,323h0a75,75,0,0,1,75,75V500a0,0,0,0,1,0,0h-150a0,0,0,0,1,0,0V398a75,75,0,0,1,75-75Z"/><circle class="cls-2" cx="247.78" cy="186.5" r="28.8"/><circle class="cls-2" cx="418.04" cy="186.5" r="28.8"/><circle class="cls-2" cx="69.96" cy="186.5" r="28.8"/></g></svg>