<svg xmlns="http://www.w3.org/2000/svg" viewBox="0 0 500 500"><defs><style>.cls-1{fill:#fceb00;}.cls-2{fill:#f70000;}.cls-3{fill:#fff;}.cls-4{fill:#f60000;}.cls-5{fill:#00c2ff;}.cls-6{fill:#fdec00;}</style></defs><g id="Word"><rect class="cls-1" x="118.03" y="108.34" width="381.97" height="381.97" rx="42"/><rect class="cls-2" x="24.9" y="21.93" width="381.97" height="381.97" rx="42" transform="translate(-31.3 37.3) rotate(-9.21)"/><path class="cls-3" d="M308,274.37q1.33,8.17-3.52,16.15t-15.06,9.63a22.18,22.18,0,0,1-12.85-1.66,20.05,20.05,0,0,1-9.51-8.79l-11-19.78-83.45,13.53-4.48,22.29a19.84,19.84,0,0,1-6.39,11.37A22.84,22.84,0,0,1,150,322.76q-9.93,1.62-17-4.27a23,23,0,0,1-8.47-14.35,19.28,19.28,0,0,1,.18-8.12l33.2-155.42a33.28,33.28,0,0,1,10.11-18,34,34,0,0,1,18.15-9.08,35.69,35.69,0,0,1,22,1.67A32.83,32.83,0,0,1,225,129.72l80.32,137A25.74,25.74,0,0,1,308,274.37Zm-69.23-39.08-43.92-78.83-16.77,88.67Z"/><rect class="cls-4" x="416.46" y="12.67" width="53.9" height="53.9" rx="16" transform="translate(614.63 -371.31) rotate(107.51)"/><rect class="cls-5" x="376.03" y="207.02" width="66.52" height="66.52" rx="16" transform="translate(433.55 -233.71) rotate(62.51)"/><rect class="cls-6" x="2.79" y="449.23" width="47.98" height="47.98" rx="16" transform="translate(434.22 231.06) rotate(62.51)"/></g></svg>